inDegrees=yes
name=ik_S48_A02_T02
DataType=double
version=3
OpenSimVersion=4.3-2021-08-27-4bc7ad9
endheader
time	pelvis_tilt	pelvis_list	pelvis_rotation	pelvis_tx	pelvis_ty	pelvis_tz	hip_flexion_r	hip_adduction_r	hip_rotation_r	knee_angle_r	knee_angle_r_beta	ankle_angle_r	subtalar_angle_r	mtp_angle_r	hip_flexion_l	hip_adduction_l	hip_rotation_l	knee_angle_l	knee_angle_l_beta	ankle_angle_l	subtalar_angle_l	mtp_angle_l	lumbar_extension	lumbar_bending	lumbar_rotation	arm_flex_r	arm_add_r	arm_rot_r	elbow_flex_r	pro_sup_r	wrist_flex_r	wrist_dev_r	arm_flex_l	arm_add_l	arm_rot_l	elbow_flex_l	pro_sup_l	wrist_flex_l	wrist_dev_l
47.3400000000018	0.248728953707883	-2.535905211472617	95.27828942404828	0	0.9399999999999999	0	-10.15317273141324	-1.201647579132124	-8.205827749818191	9.638357064678447	0.1682210652614949	0	0	0	10.71713236451041	-2.376779237860326	-4.88745689086814	-6.201738522791209	-0.108240756570476	0	0	0	0	0	0	41.20877703565672	-41.20877703565672	4.938749570463338	84.15950264362448	85.0612507014955	0	0	41.20877703565672	-41.20877703565672	4.938749570463338	84.15950264362448	85.06125070148487	0	0
47.3600000000018	0.6216009883263967	-2.675403648227646	95.30186305261637	0	0.9399999999999999	0	-9.913968251943031	-0.6489021774068372	-8.968412838772895	8.371185431505316	0.14610474807475	0	0	0	11.63597494751827	-2.955625219577885	-6.255327510823127	-6.046489776682799	-0.1055311547912915	0	0	0	0	0	0	41.21017111912737	-41.21017111912737	4.93879480497725	84.16012341453109	85.06120546698344	0	0	41.21017111912737	-41.21017111912737	4.93879480497725	84.16012341453109	85.06120546697282	0	0
47.38000000000181	1.767853333202821	-2.758263722052851	95.75990229154985	0	0.9399999999999999	0	-9.531427786889846	0.7517098122698446	-9.502033597631353	7.216872502855905	0.1259581868714794	0	0	0	12.53703327612739	-4.192577047917377	-7.327194940449925	-5.875440126267528	-0.1025457752071597	0	0	0	0	0	0	41.21598077667944	-41.21598077667944	4.938963487925722	84.16243825485188	85.0610367840418	0	0	41.21598077667944	-41.21598077667944	4.938963487925722	84.16243825485188	85.06103678403127	0	0
47.40000000000181	2.595026262543152	-2.136455458522284	96.60121420337057	0	0.9399999999999999	0	-9.530217805218738	1.856779525774616	-10.23474713315153	6.539936323540694	0.1141434217165582	0	0	0	12.67760753243425	-5.097772378714349	-8.157214702530853	-5.868746639091104	-0.1024289518174911	0	0	0	0	0	0	41.22107449941127	-41.22107449941127	4.939110679562564	84.16445816729744	85.06088959241096	0	0	41.22107449941127	-41.22107449941127	4.939110679562564	84.16445816729744	85.06088959240044	0	0
47.42000000000181	2.918843862914786	-1.462667975418726	97.12131824680711	0	0.9399999999999999	0	-9.598909625491791	2.92816500841754	-8.586190708851602	4.222085335132579	0.07368929039823173	0	0	0	12.00777411813032	-5.375153302659244	-7.918666696041075	-6.866282459499471	-0.1198392362902	0	0	0	0	0	0	41.21601677470254	-41.21601677470254	4.938983480872905	84.16271268128541	85.06101679109558	0	0	41.21601677470254	-41.21601677470254	4.938983480872905	84.16271268128541	85.06101679108508	0	0
47.44000000000182	3.17050225838111	-0.8669994689058517	97.61303245649883	0	0.9399999999999999	0	-9.983111127611842	3.71236538445838	-7.513871191372636	2.912947954881766	0.05084053275192205	0	0	0	12.02809884397544	-5.83850323747798	-9.115574766742748	-6.390984745884248	-0.1115437262604133	0	0	0	0	0	0	41.21685752346752	-41.21685752346752	4.93901080191501	84.1630876185984	85.06098947005458	0	0	41.21685752346752	-41.21685752346752	4.93901080191501	84.1630876185984	85.06098947004409	0	0
47.46000000000182	3.32990688410288	-0.5413446617800125	98.18271548241387	0	0.9399999999999999	0	-10.05118458297304	4.442498293801414	-6.877540829546231	1.524588950192382	0.0266090969203809	0	0	0	12.17453634675092	-6.2091135008672	-10.48606245039912	-6.598966609486312	-0.115173694564703	0	0	0	0	0	0	41.21796612971848	-41.21796612971848	4.93904942752608	84.16361770041273	85.06095084444512	0	0	41.21796612971848	-41.21796612971848	4.93904942752608	84.16361770041273	85.06095084443466	0	0
47.48000000000182	3.382517416931378	-0.5063185593421305	98.83069072218684	0	0.9399999999999999	0	-10.0049209537817	4.718010816544716	-7.431240446393573	0.2834486695334441	0.004947112543755938	0	0	0	13.11209498699532	-6.528379896659934	-12.68661434717064	-5.794403530191945	-0.1011314197910321	0	0	0	0	0	0	41.22519921392259	-41.22519921392259	4.93925586980041	84.16645070131328	85.06074440217915	0	0	41.22519921392259	-41.22519921392259	4.93925586980041	84.16645070131328	85.06074440216877	0	0
47.50000000000183	3.31261128751604	-0.5579172147362026	99.41597673232404	0	0.9399999999999999	0	-9.647608050799613	5.048694269024725	-7.303721695812911	-0.8729285576232175	-0.01523547746521019	0	0	0	13.79395362043603	-6.2524306398966	-13.12300607712622	-5.456927646574164	-0.09524135447582463	0	0	0	0	0	0	41.22608633567069	-41.22608633567069	4.93928463130776	84.16684540630105	85.06071564067301	0	0	41.22608633567069	-41.22608633567069	4.93928463130776	84.16684540630105	85.06071564066262	0	0
47.52000000000183	3.315401706333473	-0.5778261349068818	99.41316788130955	0	0.9399999999999999	0	-9.090970463592127	5.264688597713056	-7.013972038329425	-1.454715360271262	-0.02538957271606903	0	0	0	14.51405078313958	-6.158996790391482	-13.31278252480839	-3.803736361823037	-0.06638772339164234	0	0	0	0	0	0	41.22686573826912	-41.22686573826912	4.939309839770723	84.16719135132432	85.06069043221108	0	0	41.22686573826912	-41.22686573826912	4.939309839770723	84.16719135132432	85.06069043220069	0	0
47.54000000000183	3.185282723741047	-0.6142446378680028	99.86571054015276	0	0.9399999999999999	0	-8.454772960323631	5.375616943497883	-6.848415495923878	-2.015454997692379	-0.03517632563550673	0	0	0	15.21039689919158	-5.941618543895422	-12.71010821430201	-2.579373560831324	-0.04501856127539685	0	0	0	0	0	0	41.22824534882358	-41.22824534882358	4.939354454951311	84.16780362178824	85.06064581703234	0	0	41.22824534882358	-41.22824534882358	4.939354454951311	84.16780362178824	85.06064581702195	0	0
47.56000000000184	3.091744543912471	-0.3774043418815053	100.3045706426335	0	0.9399999999999999	0	-8.18281972718037	5.566218453540484	-6.519293694304424	-2.60541009256627	-0.04547298447997165	0	0	0	15.48982533821739	-5.952205803624278	-12.25875206435162	-2.093490935804202	-0.03653830969044056	0	0	0	0	0	0	41.22908557844232	-41.22908557844232	4.939381657894375	84.16817693782679	85.06061861409043	0	0	41.22908557844232	-41.22908557844232	4.939381657894375	84.16817693782679	85.06061861408004	0	0
47.58000000000184	3.113839115486246	-0.2494939565262582	100.4892871243222	0	0.9399999999999999	0	-7.521091216817405	5.781845006490014	-6.416053033903788	-2.662523293006051	-0.04646979787399731	0	0	0	15.75722591080467	-6.225080457706715	-11.46575970313657	-1.960838948545746	-0.03422309575346694	0	0	0	0	0	0	41.22972694194439	-41.22972694194439	4.939402337962037	84.1684607377514	85.06059793402363	0	0	41.22972694194439	-41.22972694194439	4.939402337962037	84.1684607377514	85.06059793401323	0	0
47.60000000000184	3.107589504004926	-0.2542145544646968	100.4791742756963	0	0.9399999999999999	0	-6.78343190854817	5.935877759169953	-6.20081709626244	-2.718646360757729	-0.04744933019258393	0	0	0	16.03539606396231	-6.570895280361866	-10.13641673823791	2.786775853660668	0.04863841416145433	0	0	0	0	0	0	41.2846901850025	-41.2846901850025	4.940990359866371	84.19025314338836	85.05900991218387	0	0	41.2846901850025	-41.2846901850025	4.940990359866371	84.19025314338836	85.05900991217374	0	0
47.62000000000184	3.107559219222302	-0.2500026504304915	100.488427099852	0	0.9399999999999999	0	-6.097918294305213	6.038986466723379	-6.041061256037503	-2.241655808439894	-0.03912427455373145	0	0	0	16.03500243390469	-6.764983995324434	-9.568365778818521	2.715865718116641	0.0474007988231756	0	0	0	0	0	0	41.28565203126779	-41.28565203126779	4.941021046747811	84.1906742682967	85.05897922530366	0	0	41.28565203126779	-41.28565203126779	4.941021046747811	84.1906742682967	85.05897922529357	0	0
47.64000000000185	2.289210875008035	0.2585104346940276	100.0821003473903	0	0.9399999999999999	0	-6.071304763298486	5.338066956218868	-5.707216200504091	-2.109792750641609	-0.03682283003340379	0	0	0	15.34388018898962	-6.249397494043321	-9.824237047775037	12.31686329069042	0.2149698179405712	0	0	0	0	0	0	41.37703194602985	-41.37703194602985	4.94353092093782	84.22511680284993	85.05646935121464	0	0	41.37703194602985	-41.37703194602985	4.94353092093782	84.22511680284993	85.056469351205	0	0
47.66000000000185	1.765556535425867	0.4778834621281471	99.93536741101964	0	0.9399999999999999	0	-5.670512377001826	4.851639609984728	-5.697961594790256	-1.49814012072624	-0.02614747776289824	0	0	0	14.62592780877619	-6.52347350602853	-7.922081591564468	15.21200294307233	0.2654995371796796	0	0	0	0	0	0	41.39659243966327	-41.39659243966327	4.94405400928688	84.23229500812177	85.05594626288652	0	0	41.39659243966327	-41.39659243966327	4.94405400928688	84.23229500812177	85.05594626287699	0	0
47.68000000000185	1.326004109610694	0.7065328435527186	99.79344996265431	0	0.9399999999999999	0	-5.311061127591696	4.39734240772997	-5.712014779729021	-0.8838666019707019	-0.01542638235280295	0	0	0	13.41869359320023	-6.71166178024263	-6.534107675218652	14.16592248055023	0.2472419888678838	0	0	0	0	0	0	41.39794545548069	-41.39794545548069	4.944096279287074	84.23287508634868	85.0559039928881	0	0	41.39794545548069	-41.39794545548069	4.944096279287074	84.23287508634868	85.05590399287856	0	0
